<svg width="30" height="30" viewBox="0 0 30 30" fill="none" xmlns="http://www.w3.org/2000/svg">
<g id="github-svgrepo-com 1">
<path id="Vector" d="M23.3391 3.2833C23.2035 2.95604 22.9418 2.70565 22.6199 2.59534L22.6175 2.59455L22.6153 2.59376L22.6105 2.59217L22.6006 2.58892L22.5795 2.58229C22.5648 2.57779 22.5488 2.5732 22.5315 2.56859C22.497 2.55936 22.4575 2.55009 22.4131 2.54149C22.3241 2.52426 22.216 2.50984 22.0885 2.50349C21.8325 2.49074 21.5046 2.51072 21.1021 2.60067C20.4309 2.75066 19.5595 3.0933 18.4655 3.79539C18.394 3.84127 18.3215 3.8887 18.2481 3.9377C18.1746 3.91951 18.1011 3.90194 18.0275 3.885C16.0326 3.42604 13.9678 3.42604 11.9728 3.885C11.8992 3.90195 11.8256 3.91951 11.7522 3.93771C11.6787 3.8887 11.6062 3.84127 11.5347 3.79539C10.4395 3.09294 9.56614 2.75036 8.89319 2.60049C8.48974 2.51065 8.16114 2.49077 7.905 2.50347C7.77733 2.5098 7.6692 2.52414 7.58035 2.54124C7.536 2.54977 7.49665 2.55896 7.46229 2.56809C7.44512 2.57265 7.4292 2.5772 7.41454 2.58164L7.39352 2.5882L7.38373 2.59139L7.379 2.59296L7.37669 2.59374L7.3744 2.59451C7.04974 2.70496 6.78597 2.95779 6.65062 3.28826C6.14645 4.51925 6.01263 5.87667 6.25544 7.17882C6.26724 7.24209 6.27993 7.30522 6.2935 7.36822C6.24145 7.44216 6.19088 7.5171 6.14179 7.59299C5.38464 8.76361 4.98192 10.1599 5.00079 11.5937C5.0026 14.6644 5.89957 16.7674 7.4165 18.1206C8.27518 18.8866 9.27179 19.3555 10.2734 19.651C10.388 19.6849 10.5027 19.7164 10.6173 19.7459C10.6005 19.804 10.585 19.8626 10.5705 19.9216C10.5099 20.1696 10.4697 20.4242 10.451 20.6826C10.4494 20.706 10.4483 20.7294 10.4479 20.7527L10.4055 23.0262L10.4052 23.0509C10.4052 23.058 10.4052 23.0651 10.4052 23.0721C10.3283 23.0912 10.2501 23.1054 10.171 23.1145C9.9275 23.1426 9.68084 23.1221 9.44513 23.0542C9.2094 22.9864 8.98909 22.8724 8.7969 22.7186C8.60472 22.5649 8.44442 22.3742 8.32539 22.1576L8.31313 22.1359C7.98545 21.5669 7.53284 21.0799 6.98928 20.7119C6.4457 20.3437 5.8255 20.1045 5.17559 20.0124C4.49207 19.9155 3.85942 20.391 3.76253 21.0746C3.66564 21.7581 4.1412 22.3907 4.82473 22.4876C5.0977 22.5264 5.3586 22.6269 5.58765 22.782C5.81402 22.9352 6.00347 23.1379 6.14175 23.375C6.41825 23.874 6.78957 24.3142 7.23502 24.6706C7.68442 25.0302 8.2004 25.2974 8.7534 25.4566C9.29185 25.6116 9.8549 25.6614 10.4119 25.6031C10.413 25.903 10.4138 26.1331 10.4138 26.25C10.4138 26.9404 10.944 27.5 11.5981 27.5H18.4448C19.0988 27.5 19.629 26.9404 19.629 26.25V21.5119C19.6613 20.9752 19.6063 20.4374 19.4673 19.9216C19.4481 19.8506 19.4274 19.78 19.4051 19.7099C19.4798 19.6912 19.5544 19.6716 19.629 19.651C20.6596 19.3671 21.6891 18.903 22.5735 18.1229C24.0989 16.7771 24.9978 14.6724 24.9995 11.5937C25.0184 10.1599 24.6156 8.76361 23.8585 7.59299C23.8094 7.51697 23.7588 7.44192 23.7065 7.36786C23.72 7.30499 23.7326 7.24197 23.7444 7.17882C23.9866 5.87417 23.8494 4.51427 23.3391 3.2833Z" fill="white" fill-opacity="0.87"/>
</g>
</svg>
